<?xml version="1.0" encoding="utf-8"?>
<!-- Generator: Adobe Illustrator 25.0.0, SVG Export Plug-In . SVG Version: 6.00 Build 0)  -->
<svg version="1.1" width="24" xmlns="http://www.w3.org/2000/svg" xmlns:xlink="http://www.w3.org/1999/xlink" x="0px" y="0px"
	 viewBox="0 0 24 24" style="enable-background:new 0 0 24 24;" xml:space="preserve">
<style type="text/css">
	.st0{fill:none;}
	.st1{fill:#1AAD19;}
</style>
<path class="st0" d="M0,0h24v24H0V0z"/>
<path class="st1" d="M5.5,18.2C3.4,16.7,2,14.4,2,11.9c0-4.6,4.5-8.3,10-8.3s10,3.7,10,8.3c0,4.6-4.5,8.3-10,8.3
	c-1.1,0-2.2-0.1-3.3-0.5c-0.1,0-0.2,0-0.3,0c-0.2,0-0.4,0.1-0.5,0.2l-2.2,1.3c-0.1,0-0.1,0.1-0.2,0.1c-0.2,0-0.3-0.2-0.3-0.3
	c0-0.1,0-0.2,0.1-0.2c0,0,0.3-1,0.5-1.7c0-0.1,0-0.2,0-0.2C5.7,18.5,5.6,18.3,5.5,18.2z M8.7,10.5c0.7,0,1.3-0.6,1.3-1.3
	c0-0.7-0.6-1.3-1.3-1.3c-0.7,0-1.3,0.6-1.3,1.3C7.4,9.9,7.9,10.5,8.7,10.5z M15.3,10.5c0.7,0,1.3-0.6,1.3-1.3c0-0.7-0.6-1.3-1.3-1.3
	c-0.7,0-1.3,0.6-1.3,1.3C14,9.9,14.6,10.5,15.3,10.5z"/>
</svg>
