<?xml version="1.0" encoding="utf-8"?>
<!-- Generator: Adobe Illustrator 25.0.0, SVG Export Plug-In . SVG Version: 6.00 Build 0)  -->
<svg version="1.1" width="24" xmlns="http://www.w3.org/2000/svg" xmlns:xlink="http://www.w3.org/1999/xlink" x="0px" y="0px"
	 viewBox="0 0 24 24" style="enable-background:new 0 0 24 24;" xml:space="preserve">
<style type="text/css">
	.st0{fill:none;}
	.st1{fill:#E32529;}
	.st2{fill:#FFFFFF;}
	.st3{fill:#F29600;}
</style>
<path class="st0" d="M0,0h24v24H0V0z"/>
<path class="st1" d="M17.5,11.4c1.3,0.4,2.7,1.3,2.7,3c0,2.8-4,6.2-10,6.2c-4.6,0-9.2-2.2-9.2-5.9c0-1.9,1.2-4.1,3.3-6.2
	c2.8-2.8,6-4,7.2-2.8c0.5,0.5,0.6,1.5,0.2,2.6c-0.2,0.6,0.5,0.2,0.5,0.2c2.2-0.9,4.2-1,4.9,0c0.4,0.5,0.3,1.3,0,2.2
	C17,11.2,17.2,11.3,17.5,11.4L17.5,11.4z"/>
<path class="st2" d="M10.2,19.3c3.6-0.4,6.4-2.6,6.2-5c-0.2-2.4-3.4-4-7-3.7c-3.6,0.4-6.4,2.6-6.2,5C3.5,18,6.6,19.7,10.2,19.3z"/>
<path d="M6.2,14.4c0.8-1.5,2.7-2.4,4.4-1.9c1.8,0.5,2.7,2.2,2,3.8c-0.7,1.7-2.9,2.6-4.7,2C6.1,17.7,5.4,16,6.2,14.4z"/>
<path class="st2" d="M7.6,17c0.6,0.3,1.3,0,1.7-0.5c0.3-0.6,0.2-1.2-0.4-1.5c-0.6-0.2-1.3,0-1.6,0.6C6.9,16.1,7,16.8,7.6,17z"/>
<path class="st2" d="M9.8,15.2c0.2,0.1,0.5,0,0.6-0.2c0.1-0.2,0-0.5-0.2-0.5c-0.2-0.1-0.5,0-0.6,0.2C9.5,14.9,9.6,15.1,9.8,15.2z"/>
<path class="st3" d="M19.9,9.5c-0.1,0.4-0.5,0.6-0.9,0.5c-0.4-0.1-0.6-0.5-0.5-0.9c0,0,0,0,0,0c0.2-0.5,0-1-0.3-1.4
	c-0.3-0.4-0.8-0.5-1.3-0.4c-0.4,0.1-0.8-0.2-0.9-0.6c-0.1-0.4,0.2-0.8,0.6-0.9c1.5-0.3,3,0.6,3.4,2.2C20.1,8.5,20,9,19.9,9.5z"/>
<path class="st3" d="M16,2.9c2-0.4,4.1,0.3,5.5,1.8c1.4,1.5,1.9,3.7,1.2,5.7c-0.1,0.4-0.6,0.7-1.1,0.5c0,0,0,0,0,0
	c-0.4-0.1-0.7-0.6-0.5-1.1c0.7-2.2-0.5-4.5-2.7-5.2c-0.7-0.2-1.4-0.3-2.1-0.1c-0.5,0.1-0.9-0.2-1-0.7C15.3,3.4,15.5,3,16,2.9z"/>
</svg>
